<?xml version="1.0" encoding="UTF-8"?>
<svg width="453.7" height="131.22" version="1.1" viewBox="0 0 453.7 131.22" xmlns="http://www.w3.org/2000/svg" xmlns:cc="http://creativecommons.org/ns#" xmlns:dc="http://purl.org/dc/elements/1.1/" xmlns:rdf="http://www.w3.org/1999/02/22-rdf-syntax-ns#">
 <metadata>
  <rdf:RDF>
   <cc:Work rdf:about="">
    <dc:format>image/svg+xml</dc:format>
    <dc:type rdf:resource="http://purl.org/dc/dcmitype/StillImage"/>
    <dc:title/>
   </cc:Work>
  </rdf:RDF>
 </metadata>
 <g transform="translate(-23.148 -34.388)">
  <g transform="translate(0,-150)" fill="#8f7878" aria-label="booth">
   <path d="m205.06 233.6q6.032 0 11.252 2.436 5.22 2.32 9.048 6.496 3.828 4.06 5.916 9.628 2.204 5.452 2.204 11.716t-2.204 11.832q-2.088 5.452-5.916 9.628-3.828 4.06-9.048 6.496-5.22 2.32-11.252 2.32-5.104 0-9.86-1.74-4.64-1.856-7.308-4.64l-2.32 4.988h-13.688v-84.68h16.008v31.784q6.612-6.264 17.168-6.264zm-2.204 46.284q3.132 0 5.8-1.276 2.784-1.276 4.872-3.364 2.088-2.204 3.248-5.104t1.16-6.264q0-3.248-1.16-6.148-1.16-3.016-3.248-5.104-2.088-2.204-4.872-3.48-2.668-1.276-5.8-1.276t-5.916 0.928q-2.668 0.812-4.756 2.784-1.972 1.856-3.132 4.988-1.16 3.016-1.16 7.54 0 4.06 1.16 7.076 1.16 2.9 3.132 4.872 2.088 1.856 4.756 2.9 2.784 0.928 5.916 0.928z"/>
   <path d="m268.72 233.6q6.148 0 11.6 2.436 5.452 2.32 9.512 6.496 4.06 4.06 6.38 9.628 2.436 5.452 2.436 11.716t-2.436 11.832q-2.32 5.452-6.38 9.628-4.06 4.06-9.512 6.496-5.452 2.32-11.6 2.32-6.264 0-11.716-2.32-5.452-2.436-9.512-6.496-4.06-4.176-6.496-9.628-2.32-5.568-2.32-11.832t2.32-11.716q2.436-5.568 6.496-9.628 4.06-4.176 9.512-6.496 5.452-2.436 11.716-2.436zm0 46.516q2.9 0 5.336-1.16 2.552-1.16 4.408-3.132 1.972-2.088 3.016-4.872 1.16-2.9 1.16-6.38t-1.16-6.496q-1.044-3.016-3.016-5.22-1.856-2.32-4.408-3.596-2.436-1.392-5.336-1.392t-5.452 1.392q-2.552 1.276-4.524 3.596-1.856 2.204-3.016 5.22-1.044 3.016-1.044 6.496t1.044 6.38q1.16 2.784 3.016 4.872 1.972 1.972 4.524 3.132t5.452 1.16z"/>
   <path d="m335.33 233.6q6.148 0 11.6 2.436 5.452 2.32 9.512 6.496 4.06 4.06 6.38 9.628 2.436 5.452 2.436 11.716t-2.436 11.832q-2.32 5.452-6.38 9.628-4.06 4.06-9.512 6.496-5.452 2.32-11.6 2.32-6.264 0-11.716-2.32-5.452-2.436-9.512-6.496-4.06-4.176-6.496-9.628-2.32-5.568-2.32-11.832t2.32-11.716q2.436-5.568 6.496-9.628 4.06-4.176 9.512-6.496 5.452-2.436 11.716-2.436zm0 46.516q2.9 0 5.336-1.16 2.552-1.16 4.408-3.132 1.972-2.088 3.016-4.872 1.16-2.9 1.16-6.38t-1.16-6.496q-1.044-3.016-3.016-5.22-1.856-2.32-4.408-3.596-2.436-1.392-5.336-1.392t-5.452 1.392q-2.552 1.276-4.524 3.596-1.856 2.204-3.016 5.22-1.044 3.016-1.044 6.496t1.044 6.38q1.16 2.784 3.016 4.872 1.972 1.972 4.524 3.132t5.452 1.16z"/>
   <path d="m394.86 272.11q0 4.06 2.436 6.264 2.552 2.204 6.612 2.204 3.248 0 6.496-1.276v13.456q-2.9 0.928-6.148 1.508-3.248 0.696-6.496 0.696-3.712 0-7.076-0.928t-6.032-3.132q-2.668-2.32-4.292-6.032-1.508-3.828-1.508-9.396v-25.984h-8.236v-10.788l8.236-3.48v-12.876h16.008v12.876h15.544v14.268h-15.544z"/>
   <path d="m450.06 233.6q5.684 0 10.556 2.436 4.988 2.32 8.584 6.496 3.596 4.06 5.568 9.628 2.088 5.452 2.088 11.716v28.884h-15.66v-10.556q0-4.408 0-9.048 0.116-4.756 0.116-8.12 0-3.248-1.044-6.38t-2.9-5.452q-1.856-2.436-4.408-3.828-2.436-1.508-5.22-1.508-2.668 0-5.104 1.044-2.436 0.928-4.292 2.9-1.856 1.856-3.016 4.756-1.044 2.9-1.044 6.844v29.348h-16.124v-84.68h16.124v31.552q3.016-2.9 6.844-4.408 3.944-1.624 8.932-1.624z"/>
  </g>
  <g transform="matrix(.25633 0 0 .25633 41.686 68.662)" fill="#fd2a31">
   <path d="m-6.9525 377.82c-16.161-0.14705-30.3-0.39723-31.42-0.55594-1.5936-0.22583-2.3275-0.58867-3.3751-1.6687-1.2379-1.2762-1.3619-1.64-1.6465-4.8335-0.43696-4.9018-0.83413-240.7-0.40543-240.7 0.1921 0 2.754 0.81462 5.6932 1.8103 7.2672 2.4618 16.319 4.7519 21.802 5.516 12.75 1.7766 30.292 0.97462 43.62-1.9942 12.943-2.8831 27.846-9.6968 38.522-17.612 8.1856-6.0693 18.88-16.349 23.783-22.86 1.6444-2.1839 3.0388-4.027 3.0987-4.0957 0.05985-0.06876 1.7796 2.0754 3.8216 4.7648 4.1665 5.4874 12.712 14.29 17.81 18.346 15.631 12.436 34.525 20.896 52.414 23.467 11.6 1.6672 29.013 1 41.287-1.582 10.858-2.2841 22.12-6.9808 32.894-13.718 4.524-2.829 7.492-5.1028 13.208-10.118 5.214-4.575 14.497-14.164 17.24-17.809l2.2597-3.0023 2.8156 3.6611c3.3901 4.408 14.922 15.962 20.226 20.266 6.2528 5.0727 16.563 10.864 27.592 15.5 12.925 5.4322 20.942 7.0315 38.231 7.6261 15.186 0.52229 26.92-1.2463 40.835-6.1547 3.1321-1.1048 5.7969-2.0087 5.9217-2.0087 0.3634 0-0.29847 216.92-0.70333 230.5-0.20183 6.77-0.55883 12.977-0.7933 13.794-0.23447 0.81639-0.77858 1.6729-1.2092 1.9033-0.43058 0.23043-2.6116 0.59381-4.8467 0.80749-3.1317 0.2994-78.108 0.99745-123.09 1.146l-5.8568 0.0193-0.0134-67.204c-7e-3 -36.962-0.17592-73.994-0.37449-82.293-0.32666-13.652-0.43896-15.312-1.1795-17.439-2.0058-5.7601-7.3292-11.075-11.942-11.923-4.6011-0.84588-16.124-0.99533-76.626-0.99381-62.799 2e-3 -74.162 0.16801-77.363 1.1331-3.799 1.1454-8.3061 5.401-10.427 9.8449-1.0103 2.1169-1.3422 3.4671-1.6344 6.6494-0.2017 2.1962-0.46092 39.595-0.57607 83.109l-0.20935 79.116-35.004-0.0703c-19.252-0.0387-48.226-0.19061-64.387-0.33766z"/>
   <path d="m-9.888 98.983c-16.286-2.9347-30.195-10.35-41.915-22.345-10.025-10.261-17.84-25.585-19.851-38.923-0.90599-6.0101-0.88796-17.689 0.03559-23.043 1.4353-8.3219 11.678-49.708 31.017-125.33 4.977-19.461 5.2363-20.247 6.9282-21.018 2.9026-1.3225 9.9317-1.538 58.206-1.784l49.798-0.25378-0.02512 42.992c-0.032221 55.125-0.76661 125.68-1.357 130.37-0.57039 4.5316-2.6989 10.978-5.7136 17.304-10.463 21.957-29.279 36.538-53.287 41.293-6.5464 1.2966-18.639 1.6673-23.836 0.73076z"/>
   <path d="m173.22 98.989c-23.633-4.1811-42.028-17.698-52.509-38.583-2.6593-5.2993-4.8581-11.322-5.9077-16.182-1.0543-4.8814-1.5778-37.987-1.8262-115.49l-0.19984-62.336h140.79l-0.19229 37.496c-0.10576 20.623-0.29241 57.404-0.41478 81.735-0.2745 54.577-0.61319 60.302-4.0629 68.667-9.496 23.028-28.309 38.862-52.493 44.183-4.8002 1.056-18.404 1.3549-23.184 0.50926z"/>
   <path d="m355.19 99.169c-4.2962-0.68022-12.914-3.0906-16.83-4.7075-20.514-8.4691-34.496-23.575-43.018-46.473l-1.8842-5.0631-0.68656-176.53h103.65l1.9136 2.076c2.9194 3.1672 3.9151 6.5842 16.352 56.12 7.8236 31.16 16.09 64.928 20.734 84.692 2.4076 10.247 2.5004 10.894 2.4794 17.27-0.0224 6.7888-0.74315 11.885-2.61 18.453-4.0283 14.172-10.05 24.187-20.668 34.374-10.549 10.121-23.848 16.973-37.013 19.071-5.8771 0.93665-18.477 1.3387-22.415 0.71522z"/>
   <path d="m132.05 307.13v-70.735h101.25v141.47h-101.25z"/>
  </g>
 </g>
</svg>
